<svg width="37" height="40" viewBox="0 0 37 40" fill="none" xmlns="http://www.w3.org/2000/svg">
<rect x="0.1875" y="0.1875" width="36.0938" height="39.2812" rx="1.6875" stroke="#0E4873" stroke-width="0.375"/>
<path d="M24.658 33.1913C24.5479 33.1913 24.4733 33.1762 24.434 33.146C24.3946 33.1083 24.375 33.0366 24.375 32.9309V32.4668C24.375 32.3535 24.3868 32.2705 24.4104 32.2177C24.4418 32.1573 24.5086 32.063 24.6108 31.9347L27.2874 28.6064C27.3818 28.4932 27.3464 28.4366 27.1813 28.4366H24.6108C24.5244 28.4366 24.4615 28.4215 24.4222 28.3913C24.3907 28.3535 24.375 28.2894 24.375 28.1988V27.3951C24.375 27.2592 24.4418 27.1913 24.5755 27.1913H29.8697C30.0033 27.1913 30.0702 27.2554 30.0702 27.3837V27.9271C30.0702 28.0102 30.0544 28.0819 30.023 28.1422C29.9994 28.2026 29.9562 28.2781 29.8933 28.3686L27.1577 31.7309C27.0555 31.8592 27.0831 31.9234 27.2403 31.9234H29.8579C30.0151 31.9234 30.0938 31.9875 30.0938 32.1158V32.9649C30.0938 33.0252 30.0702 33.0781 30.023 33.1234C29.9837 33.1686 29.9208 33.1913 29.8343 33.1913H24.658Z" fill="#F0C808"/>
<path d="M23.6146 32.8877C23.6146 33.0001 23.5903 33.0788 23.5417 33.1238C23.4931 33.1688 23.4132 33.1913 23.3021 33.1913H22.0104C21.9132 33.1913 21.8472 33.1725 21.8125 33.1351C21.7778 33.0901 21.7604 33.0226 21.7604 32.9326V27.4676C21.7604 27.3102 21.8229 27.2315 21.9479 27.2315H23.4375C23.5556 27.2315 23.6146 27.3027 23.6146 27.4451V32.8877ZM23.625 26.3206C23.625 26.523 23.5174 26.6242 23.3021 26.6242H22C21.9028 26.6242 21.8368 26.6017 21.8021 26.5568C21.7674 26.5118 21.75 26.4443 21.75 26.3544V25.0949C21.75 24.93 21.8125 24.8475 21.9375 24.8475H23.4375C23.5625 24.8475 23.625 24.9225 23.625 25.0724V26.3206Z" fill="#F0C808"/>
<path d="M15.2812 33.195C15.1687 33.195 15.0937 33.1763 15.0562 33.1388C15.0187 33.0938 15 33.0263 15 32.9363V25.0838C15 24.9263 15.0675 24.8475 15.2025 24.8475H16.8113C16.9388 24.8475 17.0025 24.9225 17.0025 25.0725V27.6375C17.0025 27.7275 17.0212 27.7763 17.0587 27.7838C17.1037 27.7913 17.1525 27.7725 17.205 27.7275C17.3475 27.5925 17.4938 27.4838 17.6438 27.4013C17.8013 27.3113 17.9662 27.2438 18.1387 27.1988C18.3187 27.1463 18.5062 27.12 18.7012 27.12C19.2037 27.12 19.6275 27.2475 19.9725 27.5025C20.3175 27.75 20.58 28.1025 20.76 28.56C20.9475 29.0175 21.0413 29.5538 21.0413 30.1688C21.0413 31.1213 20.82 31.8825 20.3775 32.4525C19.935 33.0225 19.305 33.3075 18.4875 33.3075C18.2325 33.3075 17.9925 33.2663 17.7675 33.1838C17.55 33.1013 17.3512 32.9888 17.1712 32.8463C16.9987 32.7038 16.845 32.55 16.71 32.385C16.68 32.3475 16.6537 32.3325 16.6312 32.34C16.6087 32.3475 16.59 32.3738 16.575 32.4188L16.4175 32.9475C16.3725 33.1125 16.2787 33.195 16.1362 33.195H15.2812ZM17.0025 31.125C17.0025 31.3275 17.0437 31.5038 17.1262 31.6538C17.2087 31.8038 17.3212 31.92 17.4637 32.0025C17.6137 32.0775 17.775 32.115 17.9475 32.115C18.1725 32.115 18.3637 32.055 18.5212 31.935C18.6787 31.8075 18.7987 31.605 18.8812 31.3275C18.9712 31.0425 19.0162 30.6713 19.0162 30.2138C19.0162 29.5388 18.9263 29.0625 18.7463 28.785C18.5738 28.5 18.3225 28.3575 17.9925 28.3575C17.79 28.3575 17.6062 28.4063 17.4412 28.5038C17.2762 28.6013 17.13 28.7288 17.0025 28.8863V31.125Z" fill="#F0C808"/>
<path d="M30.0938 23.6064C30.0938 23.7189 30.0604 23.7976 29.9938 23.8426C29.9354 23.8875 29.8438 23.91 29.7188 23.91H28.1563C27.9479 23.91 27.8438 23.8238 27.8438 23.6514L27.8937 15.8024C27.8937 15.645 27.9687 15.5663 28.1187 15.5663H29.8813C30.0229 15.5663 30.0938 15.6375 30.0938 15.7799V23.6064Z" fill="#F0C808"/>
<path d="M26.625 23.6064C26.625 23.7189 26.5917 23.7976 26.525 23.8426C26.4667 23.8875 26.375 23.91 26.25 23.91H24.6875C24.4792 23.91 24.375 23.8238 24.375 23.6514L24.425 15.8024C24.425 15.645 24.5 15.5663 24.65 15.5663H26.4125C26.5542 15.5663 26.625 15.6375 26.625 15.7799V23.6064Z" fill="#F0C808"/>
<path d="M21.4475 23.3962C21.23 23.5762 20.9825 23.7262 20.705 23.8462C20.4275 23.9662 20.1088 24.0262 19.7488 24.0262C19.1788 24.0262 18.7325 23.8725 18.41 23.565C18.095 23.25 17.9375 22.8562 17.9375 22.3837C17.9375 21.9487 18.0725 21.57 18.3425 21.2475C18.6125 20.925 18.9988 20.6737 19.5013 20.4937C20.0038 20.3137 20.6 20.22 21.29 20.2125L21.5262 20.2012C21.5562 20.2012 21.59 20.1937 21.6275 20.1787C21.6725 20.1562 21.695 20.1112 21.695 20.0437V19.83C21.695 19.5825 21.6275 19.3912 21.4925 19.2562C21.3575 19.1212 21.1587 19.0537 20.8962 19.0537C20.7012 19.0537 20.51 19.0987 20.3225 19.1887C20.1425 19.2712 19.9925 19.425 19.8725 19.65C19.8425 19.7025 19.8125 19.74 19.7825 19.7625C19.7525 19.7775 19.6925 19.7775 19.6025 19.7625L18.2863 19.4925C18.2413 19.4775 18.2075 19.4512 18.185 19.4137C18.1625 19.3762 18.1737 19.2937 18.2188 19.1662C18.4063 18.7012 18.7362 18.3637 19.2087 18.1537C19.6812 17.9437 20.2738 17.8387 20.9863 17.8387C21.6463 17.8387 22.1638 17.9175 22.5388 18.075C22.9213 18.2325 23.1913 18.45 23.3488 18.7275C23.5138 19.005 23.5963 19.3312 23.5963 19.7062V23.6325C23.5963 23.7375 23.5813 23.8125 23.5513 23.8575C23.5213 23.895 23.4575 23.9137 23.36 23.9137H22.01C21.92 23.9137 21.8563 23.88 21.8188 23.8125C21.7813 23.7375 21.755 23.655 21.74 23.565L21.7288 23.3962C21.7063 23.2537 21.6125 23.2537 21.4475 23.3962ZM21.695 21.3262C21.695 21.1912 21.6388 21.1275 21.5262 21.135L21.3463 21.1462C21.2113 21.1462 21.0575 21.1687 20.885 21.2137C20.72 21.2512 20.5587 21.3112 20.4012 21.3937C20.2513 21.4687 20.1275 21.5662 20.03 21.6862C19.9325 21.8062 19.8838 21.9487 19.8838 22.1137C19.8838 22.3087 19.9513 22.4625 20.0863 22.575C20.2213 22.6875 20.405 22.7437 20.6375 22.7437C20.81 22.7437 20.9563 22.7175 21.0763 22.665C21.2038 22.6125 21.305 22.5525 21.38 22.485C21.47 22.41 21.545 22.335 21.605 22.26C21.665 22.1775 21.695 22.0875 21.695 21.99V21.3262Z" fill="#F0C808"/>
<path d="M24.663 14.7225C24.4905 14.7225 24.4043 14.6362 24.4043 14.4637V6.61125C24.4043 6.45375 24.468 6.375 24.5955 6.375H26.1818C26.3093 6.375 26.373 6.44625 26.373 6.58875V9.435C26.373 9.48 26.3843 9.50625 26.4068 9.51375C26.4293 9.52125 26.463 9.51 26.508 9.48C26.733 9.27 26.9468 9.105 27.1493 8.985C27.3518 8.865 27.5505 8.77875 27.7455 8.72625C27.948 8.67375 28.1543 8.6475 28.3643 8.6475C28.9268 8.6475 29.3618 8.80875 29.6693 9.13125C29.9768 9.44625 30.1305 9.89625 30.1305 10.4813V14.4188C30.1305 14.6213 30.0255 14.7225 29.8155 14.7225H28.3643C28.2743 14.7225 28.2105 14.7038 28.173 14.6663C28.143 14.6287 28.128 14.5612 28.128 14.4637V10.7287C28.128 10.5187 28.0643 10.3575 27.9368 10.245C27.8168 10.1325 27.648 10.0763 27.4305 10.0763C27.2955 10.0763 27.168 10.0987 27.048 10.1438C26.928 10.1888 26.8155 10.26 26.7105 10.3575C26.613 10.4475 26.5118 10.5638 26.4068 10.7063V14.43C26.4068 14.625 26.2943 14.7225 26.0693 14.7225H24.663Z" fill="#1282A2"/>
<path d="M20.9877 8.64746C21.4977 8.64746 21.9327 8.74121 22.2927 8.92871C22.6527 9.10871 22.9415 9.33746 23.159 9.61496C23.3765 9.89246 23.5227 10.1737 23.5977 10.4587C23.6502 10.6312 23.5902 10.7212 23.4177 10.7287L22.0565 10.8187C21.959 10.8337 21.899 10.7887 21.8765 10.6837C21.8315 10.5637 21.779 10.4475 21.719 10.335C21.6665 10.215 21.584 10.1175 21.4715 10.0425C21.3665 9.96746 21.224 9.92996 21.044 9.92996C20.8265 9.92996 20.6352 9.99371 20.4702 10.1212C20.3052 10.2487 20.1777 10.4475 20.0877 10.7175C19.9977 10.98 19.9527 11.3212 19.9527 11.7412C19.9527 12.1687 20.0015 12.5212 20.099 12.7987C20.1965 13.0687 20.3352 13.2675 20.5152 13.395C20.6952 13.515 20.9052 13.575 21.1452 13.575C21.4602 13.575 21.7002 13.4887 21.8652 13.3162C22.0377 13.1437 22.2027 12.9225 22.3602 12.6525C22.3752 12.6225 22.3977 12.6037 22.4277 12.5962C22.4577 12.5812 22.5065 12.5812 22.574 12.5962L23.519 12.7987C23.6165 12.8212 23.6465 12.9 23.609 13.035C23.564 13.185 23.4815 13.365 23.3615 13.575C23.2415 13.7775 23.0765 13.9762 22.8665 14.1712C22.664 14.3587 22.4052 14.5162 22.0902 14.6437C21.7827 14.7712 21.4152 14.835 20.9877 14.835C20.3952 14.835 19.8665 14.7075 19.4015 14.4525C18.944 14.19 18.584 13.83 18.3215 13.3725C18.059 12.9075 17.9277 12.3712 17.9277 11.7637C17.9277 11.1412 18.059 10.5975 18.3215 10.1325C18.5915 9.66746 18.9552 9.30371 19.4127 9.04121C19.8777 8.77871 20.4027 8.64746 20.9877 8.64746Z" fill="#1282A2"/>
<path d="M13.3732 12.2925C13.3732 12.5475 13.4295 12.765 13.542 12.945C13.662 13.125 13.8195 13.2637 14.0145 13.3612C14.217 13.4512 14.442 13.4962 14.6895 13.4962C14.9145 13.4962 15.132 13.4475 15.342 13.35C15.552 13.245 15.777 13.065 16.017 12.81C16.047 12.78 16.0732 12.765 16.0957 12.765C16.1182 12.7575 16.1632 12.765 16.2307 12.7875L17.1532 13.17C17.2732 13.2225 17.2882 13.305 17.1982 13.4175C16.9357 13.785 16.6695 14.0737 16.3995 14.2837C16.137 14.4862 15.8445 14.6287 15.522 14.7112C15.1995 14.7937 14.832 14.835 14.4195 14.835C13.8345 14.835 13.3057 14.7075 12.8332 14.4525C12.3607 14.1975 11.9895 13.845 11.7195 13.395C11.4495 12.945 11.3145 12.4237 11.3145 11.8312C11.3145 11.1937 11.4532 10.635 11.7307 10.155C12.0157 9.67496 12.3907 9.30371 12.8557 9.04121C13.3282 8.77871 13.8382 8.64746 14.3857 8.64746C14.9707 8.64746 15.4845 8.77496 15.927 9.02996C16.377 9.27746 16.7295 9.63746 16.9845 10.11C17.247 10.5825 17.3782 11.1562 17.3782 11.8312C17.3782 11.9212 17.367 11.9887 17.3445 12.0337C17.3295 12.0787 17.277 12.105 17.187 12.1125H13.5307C13.4857 12.1125 13.4482 12.1275 13.4182 12.1575C13.3882 12.1875 13.3732 12.2325 13.3732 12.2925ZM15.2407 11.055C15.3157 11.055 15.3645 11.0475 15.387 11.0325C15.417 11.01 15.432 10.965 15.432 10.8975C15.432 10.755 15.3982 10.605 15.3307 10.4475C15.2632 10.2825 15.1582 10.14 15.0157 10.02C14.8732 9.89996 14.6932 9.83996 14.4757 9.83996C14.2732 9.83996 14.0895 9.88871 13.9245 9.98621C13.7595 10.0762 13.632 10.2112 13.542 10.3912C13.452 10.5712 13.407 10.7887 13.407 11.0437L15.2407 11.055Z" fill="#1282A2"/>
<path d="M9.55137 10.02C9.46137 10.02 9.41637 10.065 9.41637 10.155L9.41635 12.6863C9.41635 12.9113 9.47635 13.0763 9.59635 13.1813C9.72385 13.2863 9.9226 13.3388 10.1926 13.3388H10.7326C10.7851 13.3388 10.8263 13.3613 10.8563 13.4063C10.8938 13.4438 10.9126 13.4888 10.9126 13.5413L10.9013 14.3513C10.9013 14.5088 10.8038 14.6063 10.6088 14.6438C10.4663 14.6663 10.3126 14.685 10.1476 14.7C9.9826 14.7075 9.8176 14.715 9.6526 14.7225C9.4951 14.7225 9.3376 14.7225 9.1801 14.7225C8.6551 14.7225 8.2276 14.5988 7.8976 14.3513C7.5751 14.0963 7.41385 13.7288 7.41385 13.2488L7.41387 10.2113C7.41387 10.0838 7.36137 10.02 7.25637 10.02H6.64887C6.48387 10.02 6.40137 9.94503 6.40137 9.79503V8.85003C6.40137 8.72253 6.47637 8.65878 6.62637 8.65878H7.34637C7.42137 8.65878 7.46262 8.61753 7.47012 8.53503L7.63885 6.59253C7.65385 6.45003 7.7176 6.37878 7.8301 6.37878H9.2701C9.4051 6.37878 9.4726 6.45378 9.4726 6.60378L9.47262 8.53503C9.47262 8.61003 9.51012 8.64753 9.58512 8.64753H10.6989C10.8489 8.64753 10.9239 8.71128 10.9239 8.83878V9.79503C10.9239 9.94503 10.8376 10.02 10.6651 10.02H9.55137Z" fill="#1282A2"/>
<circle cx="31.875" cy="22.8788" r="1.03125" fill="#1A4D73"/>
<path d="M15.0253 16.3125H12.9891C12.9582 16.3125 12.9294 16.3276 12.9119 16.353L9.74536 20.9422C9.74139 20.9479 9.73808 20.9541 9.73548 20.9606M15.0253 16.3125L9.73548 20.9606M15.0253 16.3125C15.077 16.3125 15.119 16.3545 15.119 16.4062V20.7456C15.119 20.901 15.2449 21.0269 15.4003 21.0269H16.5975C16.6493 21.0269 16.6912 21.0689 16.6912 21.1206V22.3892C16.6912 22.441 16.6493 22.4829 16.5975 22.4829H15.4003C15.2449 22.4829 15.119 22.6089 15.119 22.7642V24.3787C15.119 24.4305 15.077 24.4725 15.0253 24.4725H13.5332C13.4814 24.4725 13.4395 24.4305 13.4395 24.3787V22.7642C13.4395 22.6089 13.3135 22.4829 13.1582 22.4829H9.75C9.69822 22.4829 9.65625 22.441 9.65625 22.3892V21.1767C9.65625 21.1648 9.65853 21.153 9.66296 21.1419L9.73548 20.9606M15.0253 16.3125L9.73548 20.9606" fill="#0E4873" stroke="#0E4873" stroke-width="0.1875"/>
<path d="M11.7454 20.7947C11.7451 20.7947 11.7447 20.7947 11.7444 20.7947L13.4967 18.3727V20.7945C13.4944 20.7946 13.4919 20.7947 13.4892 20.7947H11.7454Z" fill="#F0C808" stroke="#F0C808" stroke-width="0.1875"/>
</svg>
