<svg width="199" height="57" viewBox="0 0 199 57" fill="none" xmlns="http://www.w3.org/2000/svg">
<rect x="0.5" y="0.5" width="197.25" height="55.5" rx="4.5" stroke="#0E4873"/>
<path d="M170.505 39.5C170.211 39.5 170.012 39.4597 169.907 39.3792C169.802 39.2786 169.75 39.0874 169.75 38.8057V37.5679C169.75 37.266 169.781 37.0447 169.844 36.9038C169.928 36.7428 170.106 36.4912 170.379 36.1491L177.516 27.2736C177.768 26.9717 177.674 26.8208 177.234 26.8208H170.379C170.148 26.8208 169.981 26.7805 169.876 26.7C169.792 26.5994 169.75 26.4283 169.75 26.1868V24.0434C169.75 23.6811 169.928 23.5 170.285 23.5H184.403C184.759 23.5 184.937 23.6711 184.937 24.0132V25.4623C184.937 25.6836 184.895 25.8748 184.811 26.0358C184.748 26.1969 184.633 26.3981 184.465 26.6396L177.171 35.6057C176.898 35.9478 176.971 36.1189 177.391 36.1189H184.371C184.79 36.1189 185 36.2899 185 36.6321V38.8962C185 39.0572 184.937 39.1981 184.811 39.3189C184.707 39.4396 184.539 39.5 184.308 39.5H170.505Z" fill="#F0C808"/>
<path d="M167.722 38.6904C167.722 38.9902 167.657 39.2001 167.528 39.3201C167.398 39.44 167.185 39.5 166.889 39.5H163.444C163.185 39.5 163.009 39.45 162.917 39.3501C162.824 39.2301 162.778 39.0502 162.778 38.8103V24.2369C162.778 23.817 162.944 23.6071 163.278 23.6071H167.25C167.565 23.6071 167.722 23.7971 167.722 24.1769V38.6904ZM167.75 21.1782C167.75 21.718 167.463 21.9879 166.889 21.9879H163.417C163.157 21.9879 162.981 21.9279 162.889 21.808C162.796 21.688 162.75 21.5081 162.75 21.2682V17.9097C162.75 17.4699 162.917 17.25 163.25 17.25H167.25C167.583 17.25 167.75 17.4499 167.75 17.8497V21.1782Z" fill="#F0C808"/>
<path d="M145.5 39.51C145.2 39.51 145 39.46 144.9 39.36C144.8 39.24 144.75 39.06 144.75 38.82V17.88C144.75 17.46 144.93 17.25 145.29 17.25H149.58C149.92 17.25 150.09 17.45 150.09 17.85V24.69C150.09 24.93 150.14 25.06 150.24 25.08C150.36 25.1 150.49 25.05 150.63 24.93C151.01 24.57 151.4 24.28 151.8 24.06C152.22 23.82 152.66 23.64 153.12 23.52C153.6 23.38 154.1 23.31 154.62 23.31C155.96 23.31 157.09 23.65 158.01 24.33C158.93 24.99 159.63 25.93 160.11 27.15C160.61 28.37 160.86 29.8 160.86 31.44C160.86 33.98 160.27 36.01 159.09 37.53C157.91 39.05 156.23 39.81 154.05 39.81C153.37 39.81 152.73 39.7 152.13 39.48C151.55 39.26 151.02 38.96 150.54 38.58C150.08 38.2 149.67 37.79 149.31 37.35C149.23 37.25 149.16 37.21 149.1 37.23C149.04 37.25 148.99 37.32 148.95 37.44L148.53 38.85C148.41 39.29 148.16 39.51 147.78 39.51H145.5ZM150.09 33.99C150.09 34.53 150.2 35 150.42 35.4C150.64 35.8 150.94 36.11 151.32 36.33C151.72 36.53 152.15 36.63 152.61 36.63C153.21 36.63 153.72 36.47 154.14 36.15C154.56 35.81 154.88 35.27 155.1 34.53C155.34 33.77 155.46 32.78 155.46 31.56C155.46 29.76 155.22 28.49 154.74 27.75C154.28 26.99 153.61 26.61 152.73 26.61C152.19 26.61 151.7 26.74 151.26 27C150.82 27.26 150.43 27.6 150.09 28.02V33.99Z" fill="#F0C808"/>
<path d="M135.25 38.6904C135.25 38.9902 135.161 39.2001 134.983 39.3201C134.828 39.44 134.583 39.5 134.25 39.5H130.083C129.528 39.5 129.25 39.2701 129.25 38.8103L129.383 17.8797C129.383 17.4599 129.583 17.25 129.983 17.25H134.683C135.061 17.25 135.25 17.4399 135.25 17.8197V38.6904Z" fill="#F0C808"/>
<path d="M126 38.6904C126 38.9902 125.911 39.2001 125.733 39.3201C125.578 39.44 125.333 39.5 125 39.5H120.833C120.278 39.5 120 39.2701 120 38.8103L120.133 17.8797C120.133 17.4599 120.333 17.25 120.733 17.25H125.433C125.811 17.25 126 17.4399 126 17.8197V38.6904Z" fill="#F0C808"/>
<path d="M112.194 38.1301C111.614 38.6101 110.954 39.0101 110.214 39.3301C109.474 39.6501 108.624 39.8101 107.664 39.8101C106.144 39.8101 104.954 39.4001 104.094 38.5801C103.254 37.7401 102.834 36.6901 102.834 35.4301C102.834 34.2701 103.194 33.2601 103.914 32.4001C104.634 31.5401 105.664 30.8701 107.004 30.3901C108.344 29.9101 109.934 29.6601 111.774 29.6401L112.404 29.6101C112.484 29.6101 112.574 29.5901 112.674 29.5501C112.794 29.4901 112.854 29.3701 112.854 29.1901V28.6201C112.854 27.9601 112.674 27.4501 112.314 27.0901C111.954 26.7301 111.424 26.5501 110.724 26.5501C110.204 26.5501 109.694 26.6701 109.194 26.9101C108.714 27.1301 108.314 27.5401 107.994 28.1401C107.914 28.2801 107.834 28.3801 107.754 28.4401C107.674 28.4801 107.514 28.4801 107.274 28.4401L103.764 27.7201C103.644 27.6801 103.554 27.6101 103.494 27.5101C103.434 27.4101 103.464 27.1901 103.584 26.8501C104.084 25.6101 104.964 24.7101 106.224 24.1501C107.484 23.5901 109.064 23.3101 110.964 23.3101C112.724 23.3101 114.104 23.5201 115.104 23.9401C116.124 24.3601 116.844 24.9401 117.264 25.6801C117.704 26.4201 117.924 27.2901 117.924 28.2901V38.7601C117.924 39.0401 117.884 39.2401 117.804 39.3601C117.724 39.4601 117.554 39.5101 117.294 39.5101H113.694C113.454 39.5101 113.284 39.4201 113.184 39.2401C113.084 39.0401 113.014 38.8201 112.974 38.5801L112.944 38.1301C112.884 37.7501 112.634 37.7501 112.194 38.1301ZM112.854 32.6101C112.854 32.2501 112.704 32.0801 112.404 32.1001L111.924 32.1301C111.564 32.1301 111.154 32.1901 110.694 32.3101C110.254 32.4101 109.824 32.5701 109.404 32.7901C109.004 32.9901 108.674 33.2501 108.414 33.5701C108.154 33.8901 108.024 34.2701 108.024 34.7101C108.024 35.2301 108.204 35.6401 108.564 35.9401C108.924 36.2401 109.414 36.3901 110.034 36.3901C110.494 36.3901 110.884 36.3201 111.204 36.1801C111.544 36.0401 111.814 35.8801 112.014 35.7001C112.254 35.5001 112.454 35.3001 112.614 35.1001C112.774 34.8801 112.854 34.6401 112.854 34.3801V32.6101Z" fill="#F0C808"/>
<path d="M65.7691 39.26C65.3091 39.26 65.0791 39.03 65.0791 38.57V17.63C65.0791 17.21 65.2491 17 65.5891 17H69.8191C70.1591 17 70.3291 17.19 70.3291 17.57V25.16C70.3291 25.28 70.3591 25.35 70.4191 25.37C70.4791 25.39 70.5691 25.36 70.6891 25.28C71.2891 24.72 71.8591 24.28 72.3991 23.96C72.9391 23.64 73.4691 23.41 73.9891 23.27C74.5291 23.13 75.0791 23.06 75.6391 23.06C77.1391 23.06 78.2991 23.49 79.1191 24.35C79.9391 25.19 80.3491 26.39 80.3491 27.95V38.45C80.3491 38.99 80.0691 39.26 79.5091 39.26H75.6391C75.3991 39.26 75.2291 39.21 75.1291 39.11C75.0491 39.01 75.0091 38.83 75.0091 38.57V28.61C75.0091 28.05 74.8391 27.62 74.4991 27.32C74.1791 27.02 73.7291 26.87 73.1491 26.87C72.7891 26.87 72.4491 26.93 72.1291 27.05C71.8091 27.17 71.5091 27.36 71.2291 27.62C70.9691 27.86 70.6991 28.17 70.4191 28.55V38.48C70.4191 39 70.1191 39.26 69.5191 39.26H65.7691Z" fill="#1282A2"/>
<path d="M55.9676 23.0601C57.3276 23.0601 58.4876 23.3101 59.4476 23.8101C60.4076 24.2901 61.1776 24.9001 61.7576 25.6401C62.3376 26.3801 62.7276 27.1301 62.9276 27.8901C63.0676 28.3501 62.9076 28.5901 62.4476 28.6101L58.8176 28.8501C58.5576 28.8901 58.3976 28.7701 58.3376 28.4901C58.2176 28.1701 58.0776 27.8601 57.9176 27.5601C57.7776 27.2401 57.5576 26.9801 57.2576 26.7801C56.9776 26.5801 56.5976 26.4801 56.1176 26.4801C55.5376 26.4801 55.0276 26.6501 54.5876 26.9901C54.1476 27.3301 53.8076 27.8601 53.5676 28.5801C53.3276 29.2801 53.2076 30.1901 53.2076 31.3101C53.2076 32.4501 53.3376 33.3901 53.5976 34.1301C53.8576 34.8501 54.2276 35.3801 54.7076 35.7201C55.1876 36.0401 55.7476 36.2001 56.3876 36.2001C57.2276 36.2001 57.8676 35.9701 58.3076 35.5101C58.7676 35.0501 59.2076 34.4601 59.6276 33.7401C59.6676 33.6601 59.7276 33.6101 59.8076 33.5901C59.8876 33.5501 60.0176 33.5501 60.1976 33.5901L62.7176 34.1301C62.9776 34.1901 63.0576 34.4001 62.9576 34.7601C62.8376 35.1601 62.6176 35.6401 62.2976 36.2001C61.9776 36.7401 61.5376 37.2701 60.9776 37.7901C60.4376 38.2901 59.7476 38.7101 58.9076 39.0501C58.0876 39.3901 57.1076 39.5601 55.9676 39.5601C54.3876 39.5601 52.9776 39.2201 51.7376 38.5401C50.5176 37.8401 49.5576 36.8801 48.8576 35.6601C48.1576 34.4201 47.8076 32.9901 47.8076 31.3701C47.8076 29.7101 48.1576 28.2601 48.8576 27.0201C49.5776 25.7801 50.5476 24.8101 51.7676 24.1101C53.0076 23.4101 54.4076 23.0601 55.9676 23.0601Z" fill="#1282A2"/>
<path d="M35.6609 32.7801C35.6609 33.4601 35.8109 34.0401 36.1109 34.5201C36.4309 35.0001 36.8509 35.3701 37.3709 35.6301C37.9109 35.8701 38.5109 35.9901 39.1709 35.9901C39.7709 35.9901 40.3509 35.8601 40.9109 35.6001C41.4709 35.3201 42.0709 34.8401 42.7109 34.1601C42.7909 34.0801 42.8609 34.0401 42.9209 34.0401C42.9809 34.0201 43.1009 34.0401 43.2809 34.1001L45.7409 35.1201C46.0609 35.2601 46.1009 35.4801 45.8609 35.7801C45.1609 36.7601 44.4509 37.5301 43.7309 38.0901C43.0309 38.6301 42.2509 39.0101 41.3909 39.2301C40.5309 39.4501 39.5509 39.5601 38.4509 39.5601C36.8909 39.5601 35.4809 39.2201 34.2209 38.5401C32.9609 37.8601 31.9709 36.9201 31.2509 35.7201C30.5309 34.5201 30.1709 33.1301 30.1709 31.5501C30.1709 29.8501 30.5409 28.3601 31.2809 27.0801C32.0409 25.8001 33.0409 24.8101 34.2809 24.1101C35.5409 23.4101 36.9009 23.0601 38.3609 23.0601C39.9209 23.0601 41.2909 23.4001 42.4709 24.0801C43.6709 24.7401 44.6109 25.7001 45.2909 26.9601C45.9909 28.2201 46.3409 29.7501 46.3409 31.5501C46.3409 31.7901 46.3109 31.9701 46.2509 32.0901C46.2109 32.2101 46.0709 32.2801 45.8309 32.3001H36.0809C35.9609 32.3001 35.8609 32.3401 35.7809 32.4201C35.7009 32.5001 35.6609 32.6201 35.6609 32.7801ZM40.6409 29.4801C40.8409 29.4801 40.9709 29.4601 41.0309 29.4201C41.1109 29.3601 41.1509 29.2401 41.1509 29.0601C41.1509 28.6801 41.0609 28.2801 40.8809 27.8601C40.7009 27.4201 40.4209 27.0401 40.0409 26.7201C39.6609 26.4001 39.1809 26.2401 38.6009 26.2401C38.0609 26.2401 37.5709 26.3701 37.1309 26.6301C36.6909 26.8701 36.3509 27.2301 36.1109 27.7101C35.8709 28.1901 35.7509 28.7701 35.7509 29.4501L40.6409 29.4801Z" fill="#1282A2"/>
<path d="M25.4703 26.72C25.2303 26.72 25.1103 26.84 25.1103 27.08L25.1103 33.83C25.1103 34.43 25.2703 34.87 25.5903 35.15C25.9303 35.43 26.4603 35.57 27.1803 35.57H28.6203C28.7603 35.57 28.8703 35.63 28.9503 35.75C29.0503 35.85 29.1003 35.97 29.1003 36.11L29.0703 38.27C29.0703 38.69 28.8103 38.95 28.2903 39.05C27.9103 39.11 27.5003 39.16 27.0603 39.2C26.6203 39.22 26.1803 39.24 25.7403 39.26C25.3203 39.26 24.9003 39.26 24.4803 39.26C23.0803 39.26 21.9403 38.93 21.0603 38.27C20.2003 37.59 19.7703 36.61 19.7703 35.33L19.7703 27.23C19.7703 26.89 19.6303 26.72 19.3503 26.72H17.7303C17.2903 26.72 17.0703 26.52 17.0703 26.12V23.6C17.0703 23.26 17.2703 23.09 17.6703 23.09H19.5903C19.7903 23.09 19.9003 22.98 19.9203 22.76L20.3703 17.58C20.4103 17.2 20.5803 17.01 20.8803 17.01H24.7203C25.0803 17.01 25.2603 17.21 25.2603 17.61L25.2603 22.76C25.2603 22.96 25.3603 23.06 25.5603 23.06H28.5303C28.9303 23.06 29.1303 23.23 29.1303 23.57V26.12C29.1303 26.52 28.9003 26.72 28.4403 26.72H25.4703Z" fill="#1282A2"/>
<circle cx="140" cy="37" r="2.75" fill="#0E4873"/>
<path d="M82.4613 28.8949L82.2304 28.8026L82.4613 28.8949C82.4682 28.8776 82.477 28.8611 82.4876 28.8458L82.2819 28.7038L82.4876 28.8458L90.9317 16.608C90.9784 16.5404 91.0553 16.5 91.1375 16.5H96.5673C96.7054 16.5 96.8173 16.6119 96.8173 16.75V28.3217C96.8173 28.7359 97.1531 29.0717 97.5673 29.0717H100.76C100.898 29.0717 101.01 29.1836 101.01 29.3217V32.7045C101.01 32.8426 100.898 32.9545 100.76 32.9545H97.5673C97.1531 32.9545 96.8173 33.2903 96.8173 33.7045V38.01C96.8173 38.1481 96.7054 38.26 96.5673 38.26H92.5886C92.4505 38.26 92.3386 38.1481 92.3386 38.01V33.7045C92.3386 33.2903 92.0028 32.9545 91.5886 32.9545H82.5C82.3619 32.9545 82.25 32.8426 82.25 32.7045V29.4713C82.25 29.4395 82.2561 29.408 82.2679 29.3784L82.4613 28.8949Z" fill="#0E4873" stroke="#0E4873" stroke-width="0.5"/>
<path d="M87.8211 28.4524C87.8202 28.4524 87.8193 28.4524 87.8184 28.4524L92.4911 21.994V28.4519C92.4852 28.4523 92.4785 28.4524 92.4711 28.4524H87.8211Z" fill="#F0C808" stroke="#F0C808" stroke-width="0.5"/>
</svg>
